<svg width="536" height="536" viewBox="0 0 536 536" fill="none" xmlns="http://www.w3.org/2000/svg">
<circle cx="268" cy="268" r="268" fill="#EBEBEB"/>
<g clip-path="url(#clip0_612_601)">
<path d="M315.324 366.827C312.844 363.354 309.487 360.813 305.266 359.862C301.585 359.032 297.801 359.174 294.06 359.203L246.753 359.567C242.702 359.599 238.817 363.109 239.005 367.315C239.192 371.486 242.411 375.096 246.753 375.063C260.611 374.956 274.468 374.849 288.326 374.742C291.593 374.717 294.861 374.658 298.129 374.669C298.862 374.671 299.593 374.71 300.326 374.718C300.504 374.72 300.632 374.719 300.722 374.715C300.745 374.722 300.764 374.728 300.794 374.736C301.176 374.841 301.568 374.914 301.953 375.013C301.818 375.017 302.202 375.257 302.395 375.338C302.422 375.391 302.478 375.483 302.573 375.627C302.704 375.873 303.094 376.623 303.11 376.6C303.696 378.081 304.179 379.601 304.557 381.148C305.457 384.561 305.655 385.274 305.784 388.476C305.948 392.52 309.231 396.416 313.532 396.223C317.59 396.042 321.456 392.813 321.28 388.476C320.984 381.166 319.701 372.956 315.324 366.827Z" fill="#E6E6E6"/>
<path d="M249.534 384.31C248.645 378.926 247.774 373.538 246.868 368.156C245.949 362.697 244.072 357.698 239.824 354.115C238.688 353.157 237.511 352.263 236.329 351.372C235.914 351.059 235.499 350.746 235.088 350.425C235.063 350.406 235.048 350.394 235.027 350.378C234.981 350.339 234.927 350.293 234.854 350.231C233.084 348.732 231.373 347.167 229.743 345.503C228.296 344.026 226.912 342.485 225.591 340.881C225.261 340.481 224.935 340.077 224.613 339.669C224.558 339.599 224.26 339.214 224.064 338.963C223.881 338.711 223.548 338.257 223.492 338.178C223.116 337.646 222.747 337.11 222.385 336.569C219.917 332.872 217.78 328.964 215.999 324.891C215.822 324.488 215.65 324.081 215.482 323.673C215.436 323.548 215.378 323.388 215.3 323.174C214.942 322.187 214.583 321.202 214.255 320.203C213.558 318.082 212.958 315.929 212.457 313.745C212.209 312.667 211.985 311.583 211.787 310.493C211.684 309.933 211.589 309.372 211.5 308.809C211.485 308.716 211.398 308.109 211.347 307.766C211.309 307.421 211.238 306.811 211.229 306.717C211.172 306.15 211.122 305.582 211.078 305.014C210.979 303.736 210.912 302.455 210.877 301.173C210.817 298.893 210.858 296.614 210.999 294.334C211.08 293.054 211.194 291.776 211.335 290.501C211.344 290.423 211.35 290.361 211.356 290.305C211.365 290.248 211.375 290.183 211.387 290.103C211.491 289.398 211.601 288.694 211.723 287.993C212.188 285.33 212.792 282.693 213.534 280.093C213.885 278.864 214.266 277.644 214.678 276.435C214.862 275.898 215.051 275.363 215.246 274.83C215.233 274.865 215.819 273.37 215.826 273.32C218.148 267.834 221.946 262.832 221.951 256.601C221.955 252.381 218.385 248.339 214.203 248.534C212.118 248.613 210.145 249.498 208.7 251.002C207.255 252.507 206.45 254.514 206.456 256.601C206.456 256.695 206.455 256.776 206.455 256.855C206.416 256.986 206.383 257.096 206.354 257.193C205.901 258.177 205.346 259.112 204.849 260.071C203.488 262.697 202.327 265.41 201.223 268.162C199.417 272.644 198.034 277.285 197.093 282.025C195.048 292.41 194.889 303.078 196.624 313.52C199.628 331.83 209.535 349.358 223.307 361.139C224.503 362.162 225.727 363.15 226.963 364.118C227.474 364.518 227.99 364.912 228.508 365.302C228.753 365.487 229.768 366.287 229.322 365.899C230.282 366.719 230.686 367.131 230.932 367.734C230.968 367.874 231.017 368.063 231.083 368.321C231.256 369.001 231.421 369.68 231.559 370.37C232.757 376.4 233.591 382.53 234.592 388.599C235.28 392.768 240.413 395.482 244.123 394.233C248.44 392.778 250.272 388.778 249.534 384.31Z" fill="#E6E6E6"/>
<path d="M316.108 399.949C312.854 399.957 309.73 398.675 307.42 396.383C305.111 394.09 303.805 390.976 303.789 387.722V378.884C294.535 379.92 262.85 379.68 253.767 378.22V387.368C253.743 390.62 252.434 393.729 250.126 396.02C247.819 398.31 244.699 399.595 241.448 399.595C238.197 399.595 235.077 398.31 232.769 396.02C230.462 393.729 229.153 390.62 229.129 387.368V369.407C216.827 362.573 206.572 352.58 199.421 340.459C192.271 328.339 188.485 314.53 188.453 300.457C188.453 276.328 199.388 253.818 218.456 238.7C230.853 228.838 245.916 222.906 261.709 221.668C263.853 221.5 266.009 221.415 268.12 221.415C275.554 221.415 309.095 222.563 317.511 224.985L336.7 205.943C336.982 205.66 337.343 205.466 337.735 205.388C338.127 205.31 338.534 205.35 338.904 205.504C339.276 205.652 339.594 205.91 339.818 206.242C340.041 206.574 340.159 206.967 340.155 207.367V210.395L343.892 206.694C344.173 206.41 344.533 206.216 344.925 206.138C345.317 206.06 345.724 206.1 346.093 206.254C346.466 206.402 346.785 206.659 347.008 206.992C347.232 207.324 347.35 207.717 347.346 208.118V241.949C356.975 250.629 364.314 261.551 368.712 273.746C373.111 285.942 374.433 299.034 372.562 311.862C370.691 324.69 365.684 336.859 357.986 347.29C350.287 357.721 340.134 366.091 328.427 371.66V387.722C328.411 390.976 327.105 394.09 324.795 396.383C322.486 398.675 319.362 399.957 316.108 399.949ZM304.757 377.785V387.722C304.782 390.716 305.988 393.579 308.114 395.688C310.24 397.797 313.113 398.98 316.108 398.98C319.102 398.98 321.975 397.797 324.101 395.688C326.227 393.579 327.434 390.716 327.458 387.722V371.048L327.735 370.917C340.871 364.683 352.023 354.931 359.952 342.743C370.055 327.19 374.257 308.534 371.797 290.151C369.336 271.769 360.376 254.874 346.538 242.525L346.378 242.381V208.118C346.381 207.909 346.321 207.705 346.204 207.532C346.088 207.36 345.922 207.227 345.728 207.151C345.535 207.069 345.322 207.046 345.116 207.087C344.91 207.128 344.721 207.23 344.575 207.38L339.187 212.717V207.367C339.19 207.159 339.13 206.955 339.013 206.782C338.897 206.609 338.731 206.476 338.537 206.401C338.343 206.318 338.13 206.296 337.924 206.338C337.717 206.379 337.529 206.481 337.382 206.632L317.782 226.08L317.503 225.993C309.68 223.544 275.61 222.383 268.12 222.383C266.035 222.383 263.903 222.468 261.785 222.634C246.184 223.857 231.304 229.716 219.057 239.459C200.223 254.392 189.421 276.625 189.421 300.457C189.453 314.405 193.22 328.09 200.329 340.091C207.438 352.091 217.63 361.969 229.847 368.698L230.097 368.837V387.368C230.122 390.362 231.329 393.225 233.455 395.333C235.581 397.442 238.454 398.625 241.448 398.625C244.442 398.625 247.315 397.442 249.441 395.333C251.567 393.225 252.774 390.362 252.799 387.368V377.061L253.372 377.169C261.534 378.704 295.904 378.947 304.21 377.857L304.757 377.785Z" fill="#9D76C1"/>
<path d="M250.46 168.681L196.835 184.797C195.129 185.311 193.698 186.482 192.855 188.052C192.012 189.621 191.826 191.461 192.339 193.167C192.852 194.873 194.021 196.306 195.589 197.151C197.158 197.996 198.997 198.183 200.704 197.673L247.632 183.567L248.615 183.271C248.814 178.206 250.188 173.255 252.629 168.812C252.323 168.674 251.995 168.589 251.661 168.56C251.256 168.521 250.848 168.562 250.46 168.681Z" fill="#9D76C1"/>
<path d="M199.777 201.108C199.065 201.107 198.372 200.881 197.795 200.464C197.218 200.047 196.787 199.459 196.562 198.784L193.209 188.665C193.069 188.242 193.014 187.796 193.046 187.352C193.078 186.908 193.198 186.475 193.398 186.077C193.597 185.679 193.874 185.325 194.211 185.034C194.547 184.743 194.938 184.521 195.361 184.381L239.006 169.917C239.428 169.777 239.874 169.721 240.318 169.753C240.762 169.786 241.195 169.905 241.593 170.105C241.991 170.305 242.346 170.581 242.637 170.918C242.928 171.254 243.15 171.645 243.29 172.068L246.643 182.186C246.922 183.019 246.866 183.927 246.487 184.718C246.108 185.51 245.436 186.123 244.613 186.428C244.572 186.443 244.531 186.457 244.49 186.471L200.846 200.934C200.501 201.049 200.14 201.108 199.777 201.108Z" fill="#2F2E41"/>
<path d="M281.514 150.711C272.705 150.715 264.243 154.146 257.919 160.278C251.595 166.41 247.906 174.762 247.631 183.567C247.622 183.911 247.617 184.259 247.617 184.608C247.617 191.312 249.605 197.866 253.33 203.44C257.054 209.014 262.348 213.359 268.542 215.924C274.736 218.49 281.551 219.161 288.127 217.853C294.702 216.545 300.742 213.317 305.482 208.577C310.223 203.836 313.451 197.796 314.759 191.221C316.067 184.646 315.396 177.83 312.83 171.636C310.265 165.442 305.92 160.148 300.346 156.424C294.771 152.699 288.218 150.711 281.514 150.711ZM281.514 217.536C272.783 217.527 264.413 214.055 258.24 207.882C252.067 201.708 248.595 193.338 248.586 184.608C248.586 184.158 248.595 183.712 248.615 183.271C248.877 176.821 251.029 170.59 254.804 165.354C258.579 160.117 263.81 156.106 269.847 153.818C275.884 151.531 282.459 151.068 288.757 152.488C295.054 153.908 300.795 157.147 305.266 161.804C309.737 166.46 312.741 172.329 313.903 178.678C315.066 185.028 314.337 191.58 311.806 197.519C309.275 203.457 305.054 208.521 299.668 212.08C294.282 215.639 287.969 217.536 281.514 217.536Z" fill="#3F3D56"/>
<path d="M310.14 184.57C310.14 192.147 307.13 199.414 301.772 204.772C296.414 210.13 289.147 213.14 281.57 213.14C273.993 213.14 266.726 210.13 261.368 204.772C256.01 199.414 253 192.147 253 184.57C253 183.664 253.044 182.773 253.126 181.892C253.814 174.579 257.293 167.813 262.839 162.997C268.385 158.181 275.573 155.687 282.91 156.031C290.248 156.376 297.17 159.533 302.241 164.848C307.311 170.162 310.14 177.225 310.14 184.57Z" fill="#E6E6E6"/>
<path d="M201.333 242.118C200.585 242.117 199.857 241.869 199.264 241.412C198.671 240.955 198.245 240.316 198.052 239.592L196.227 232.682C195.998 231.814 196.124 230.89 196.575 230.114C197.027 229.338 197.768 228.772 198.636 228.541L256.232 213.322C257.101 213.095 258.024 213.222 258.8 213.674C259.576 214.127 260.141 214.868 260.372 215.736L261.919 221.59L261.629 221.613C246.858 222.762 232.724 228.117 220.901 237.046L220.817 237.087L202.193 242.007C201.912 242.081 201.623 242.118 201.333 242.118Z" fill="#2F2E41"/>
<path d="M191.794 276.25C185.038 275.252 178.576 272.809 172.85 269.087C170.013 267.245 167.386 265.097 165.018 262.682C162.68 260.297 160.443 257.587 159.285 254.411C158.171 251.473 158.229 248.219 159.446 245.322C160.646 242.443 162.939 240.158 165.823 238.967C168.723 237.81 172.227 237.686 175.05 238.953C176.395 239.542 177.559 240.479 178.422 241.667C178.824 242.215 179.121 242.832 179.299 243.487C179.464 244.081 179.479 244.707 179.343 245.308C179.177 245.908 178.885 246.465 178.487 246.943C178.088 247.421 177.592 247.808 177.031 248.079C175.797 248.712 174.46 249.12 173.083 249.283C171.698 249.472 169.709 249.644 168.595 248.532C168.366 248.312 168.186 248.046 168.066 247.752C167.983 247.526 167.954 247.284 167.983 247.046C167.967 247.151 168.05 246.817 168.045 246.83C168.028 246.88 167.951 247 168.06 246.815C168.094 246.754 168.131 246.696 168.173 246.639C168.136 246.687 168.055 246.766 168.199 246.63C168.319 246.5 168.472 246.405 168.642 246.357C168.709 246.337 168.777 246.322 168.844 246.303C169.015 246.257 168.674 246.306 168.849 246.3C168.916 246.298 168.985 246.3 169.052 246.297C169.223 246.289 168.883 246.25 169.047 246.291C169.111 246.307 169.174 246.323 169.237 246.343C169.373 246.386 169.14 246.243 169.233 246.35C169.341 246.476 169.119 246.228 169.242 246.349C169.303 246.41 169.361 246.473 169.415 246.54C169.629 246.751 169.917 246.87 170.218 246.87C170.518 246.87 170.807 246.751 171.02 246.54C171.227 246.324 171.342 246.037 171.342 245.738C171.342 245.439 171.227 245.151 171.02 244.935C169.901 243.547 167.69 243.89 166.558 245.063C165.114 246.559 165.686 248.929 167.091 250.234C168.681 251.711 170.933 251.814 172.978 251.566C174.707 251.4 176.391 250.924 177.951 250.161C179.5 249.399 180.712 248.09 181.352 246.486C181.641 245.63 181.745 244.723 181.656 243.824C181.568 242.925 181.29 242.055 180.841 241.271C179.035 237.876 175.295 236.136 171.599 235.834C169.696 235.685 167.783 235.915 165.969 236.51C164.155 237.106 162.478 238.055 161.034 239.303C158.25 241.809 156.535 245.289 156.245 249.024C155.923 252.896 157.425 256.656 159.615 259.781C161.908 262.956 164.645 265.786 167.741 268.184C173.793 273.016 180.893 276.365 188.472 277.961C189.373 278.147 190.28 278.307 191.191 278.439C191.481 278.51 191.786 278.467 192.046 278.319C192.305 278.172 192.499 277.932 192.587 277.647C192.665 277.356 192.625 277.047 192.477 276.786C192.328 276.525 192.083 276.332 191.794 276.25Z" fill="#9D76C1"/>
<path d="M299.966 226.918C290.067 226.778 280.199 227.029 270.363 227.672C267.001 227.891 264.092 229.079 264.092 231.077C264.092 232.747 266.978 234.703 270.363 234.482C280.194 233.84 290.062 233.589 299.966 233.728C308.04 233.842 308.035 227.032 299.966 226.918Z" fill="#CCCCCC"/>
<path d="M285.335 233.391C284.265 233.391 259.135 233.351 259.135 229.88C259.135 226.409 284.265 226.369 285.335 226.369C286.405 226.369 311.535 226.409 311.535 229.88C311.535 233.351 286.405 233.391 285.335 233.391ZM260.118 229.88C260.805 230.932 270.043 232.422 285.335 232.422C300.627 232.422 309.865 230.932 310.553 229.88C309.865 228.828 300.627 227.337 285.335 227.337C270.043 227.337 260.805 228.828 260.118 229.88Z" fill="#3F3D56"/>
<path d="M365.067 324.646C370.63 324.491 377.554 324.298 382.887 320.402C384.476 319.194 385.781 317.654 386.711 315.888C387.641 314.123 388.174 312.176 388.272 310.183C388.381 307.106 387.27 304.42 385.142 302.622C382.356 300.268 378.288 299.716 373.904 301.004L378.446 267.811L375.112 267.354L369.772 306.377L372.556 305.099C375.785 303.619 380.216 302.865 382.969 305.192C383.646 305.8 384.172 306.557 384.509 307.402C384.845 308.247 384.982 309.158 384.909 310.065C384.828 311.548 384.427 312.996 383.736 314.311C383.044 315.626 382.078 316.776 380.902 317.684C376.751 320.716 371.232 321.107 364.973 321.282L365.067 324.646Z" fill="#9D76C1"/>
<path d="M355.848 270.673H337.722V274.039H355.848V270.673Z" fill="#9D76C1"/>
<path d="M209.535 257.597C208.729 257.595 207.949 257.305 207.336 256.78C206.724 256.255 206.318 255.529 206.192 254.732L205.086 247.671C204.948 246.783 205.167 245.876 205.697 245.15C206.226 244.424 207.022 243.937 207.91 243.797L266.76 234.576C267.648 234.438 268.555 234.658 269.281 235.187C270.007 235.717 270.493 236.512 270.634 237.4L271.74 244.461C271.878 245.349 271.658 246.256 271.129 246.982C270.6 247.708 269.804 248.195 268.916 248.335L210.066 257.556C209.89 257.583 209.713 257.597 209.535 257.597Z" fill="#2F2E41"/>
<path d="M185.18 174.849C198.819 174.849 209.876 163.792 209.876 150.153C209.876 136.514 198.819 125.457 185.18 125.457C171.541 125.457 160.484 136.514 160.484 150.153C160.484 163.792 171.541 174.849 185.18 174.849Z" fill="#9D76C1"/>
<path d="M199.163 156.543C199.952 156.267 200.673 155.825 201.277 155.247C201.677 154.835 201.982 154.34 202.171 153.798C202.359 153.256 202.427 152.679 202.369 152.108C202.336 151.701 202.208 151.307 201.997 150.957C201.786 150.607 201.497 150.311 201.153 150.091C200.259 149.542 199.078 149.562 197.886 150.115L197.748 140.475L196.78 140.489L196.941 151.822L197.679 151.338C198.533 150.779 199.762 150.373 200.645 150.916C200.864 151.06 201.046 151.253 201.178 151.478C201.311 151.704 201.389 151.958 201.407 152.219C201.448 152.644 201.396 153.074 201.256 153.477C201.116 153.881 200.891 154.25 200.595 154.559C199.545 155.601 197.992 155.95 196.218 156.269L196.39 157.222C197.333 157.079 198.261 156.852 199.163 156.543Z" fill="#2F2E41"/>
<path d="M207.72 139.798L202.563 140.579L202.708 141.537L207.865 140.756L207.72 139.798Z" fill="#2F2E41"/>
<path d="M191.442 142.263L186.284 143.044L186.429 144.002L191.587 143.221L191.442 142.263Z" fill="#2F2E41"/>
<path d="M201.501 257.165C200.612 257.164 199.746 256.891 199.016 256.385C198.287 255.878 197.729 255.162 197.416 254.33L180.389 208.73C178.308 203.137 178.53 196.948 181.007 191.519C183.484 186.09 188.013 181.865 193.601 179.771L207.446 174.602C207.982 174.4 208.551 174.307 209.123 174.327C209.695 174.347 210.257 174.479 210.777 174.717C211.296 174.949 211.763 175.282 212.152 175.697C212.541 176.111 212.843 176.599 213.041 177.132L244.582 236.685C244.787 237.222 244.884 237.794 244.867 238.369C244.849 238.943 244.719 239.509 244.482 240.032C244.245 240.556 243.908 241.028 243.488 241.421C243.068 241.814 242.575 242.119 242.037 242.321L203.024 256.889C202.537 257.071 202.021 257.165 201.501 257.165Z" fill="#C7C7C7"/>
<path d="M203.245 176.17L234.541 218.021L213.365 176.609C213.19 176.126 212.922 175.682 212.575 175.303C212.228 174.923 211.811 174.616 211.345 174.398C210.88 174.18 210.376 174.056 209.863 174.033C209.349 174.009 208.837 174.088 208.353 174.263L203.245 176.17Z" fill="#E6E6E6"/>
<path d="M252.799 207.953L196.92 204.354C196.039 204.297 195.178 204.067 194.386 203.678C193.594 203.288 192.886 202.747 192.304 202.084C191.721 201.421 191.275 200.65 190.99 199.814C190.705 198.979 190.588 198.095 190.645 197.215C190.701 196.334 190.931 195.473 191.321 194.681C191.71 193.889 192.252 193.181 192.915 192.599C193.578 192.016 194.349 191.569 195.184 191.285C196.02 191 196.903 190.883 197.784 190.94L253.663 194.539C254.075 194.565 254.478 194.673 254.849 194.855C255.22 195.037 255.552 195.291 255.824 195.602C256.097 195.912 256.306 196.273 256.44 196.664C256.573 197.056 256.628 197.469 256.601 197.882L256.142 205.014C256.088 205.847 255.706 206.625 255.079 207.176C254.452 207.727 253.632 208.007 252.799 207.953Z" fill="#9D76C1"/>
<path d="M237.867 210.261C237.793 210.261 237.719 210.258 237.645 210.253L191.76 207.298C191.316 207.269 190.882 207.154 190.483 206.957C190.083 206.761 189.726 206.488 189.432 206.153C189.138 205.819 188.913 205.43 188.77 205.009C188.626 204.587 188.567 204.142 188.596 203.698L189.38 191.515C189.409 191.071 189.525 190.636 189.721 190.237C189.918 189.838 190.191 189.481 190.525 189.187C190.86 188.893 191.249 188.668 191.67 188.524C192.091 188.381 192.537 188.322 192.981 188.35L238.866 191.306C239.762 191.364 240.599 191.777 241.192 192.451C241.786 193.126 242.087 194.009 242.03 194.906L241.246 207.089C241.202 207.742 240.972 208.368 240.581 208.893C240.191 209.418 239.657 209.819 239.044 210.048C238.668 210.189 238.269 210.261 237.867 210.261Z" fill="#2F2E41"/>
<path d="M184.897 133.73C188.146 130.936 192.607 133.436 196.333 132.998C199.898 132.58 202.712 129.382 203.431 125.985C204.27 122.022 202.213 118.052 199.182 115.581C195.861 112.875 191.457 112.098 187.284 112.599C182.5 113.172 178.126 115.402 174.201 118.099C170.412 120.621 166.928 123.574 163.818 126.897C161.033 129.973 158.674 133.639 157.92 137.778C157.235 141.539 157.758 145.707 159.982 148.894C161.161 150.527 162.741 151.828 164.57 152.673C166.476 153.609 168.51 154.279 170.357 155.337C173.15 156.938 175.865 160.257 174.99 163.71C174.802 164.465 174.432 165.162 173.912 165.739C173.287 166.433 172.16 165.516 172.786 164.821C173.887 163.599 173.843 161.969 173.257 160.511C172.559 158.867 171.324 157.509 169.754 156.659C167.821 155.554 165.686 154.871 163.704 153.864C161.807 152.944 160.161 151.58 158.905 149.887C156.533 146.591 155.823 142.301 156.361 138.332C156.943 134.038 159.15 130.136 161.916 126.865C164.926 123.306 168.623 120.294 172.401 117.588C176.454 114.684 180.932 112.229 185.887 111.341C190.182 110.571 194.838 111.045 198.594 113.386C202.1 115.571 204.788 119.329 205.056 123.529C205.152 125.44 204.737 127.342 203.854 129.039C202.971 130.736 201.651 132.168 200.031 133.186C198.369 134.18 196.436 134.628 194.506 134.466C192.442 134.333 190.377 133.702 188.3 133.877C187.36 133.934 186.465 134.296 185.749 134.908C185.039 135.518 184.193 134.336 184.897 133.73Z" fill="#2F2E41"/>
<path d="M469.087 400.175H111.577C111.424 400.175 111.278 400.114 111.17 400.006C111.062 399.898 111.002 399.751 111.002 399.599C111.002 399.446 111.062 399.3 111.17 399.192C111.278 399.083 111.424 399.022 111.577 399.022H469.087C469.24 399.022 469.387 399.083 469.495 399.191C469.603 399.299 469.664 399.446 469.664 399.599C469.664 399.752 469.603 399.898 469.495 400.006C469.387 400.114 469.24 400.175 469.087 400.175Z" fill="#3F3D56"/>
</g>
<path d="M277.88 190.54C277.387 190.54 276.9 190.54 276.42 190.54C275.953 190.54 275.473 190.54 274.98 190.54L273.24 189.84H271.22V187.7C271.927 187.7 272.633 187.7 273.34 187.7C274.06 187.7 274.76 187.7 275.44 187.7C276.813 187.7 278 187.54 279 187.22C280 186.887 280.767 186.3 281.3 185.46C281.833 184.62 282.1 183.42 282.1 181.86C282.1 180.713 281.933 179.793 281.6 179.1C281.267 178.407 280.82 177.887 280.26 177.54C279.713 177.193 279.107 176.96 278.44 176.84C277.773 176.72 277.107 176.66 276.44 176.66C275.573 176.66 274.707 176.66 273.84 176.66C272.973 176.66 272.1 176.66 271.22 176.66V173.54H291.72V176.66C290.587 176.66 289.48 176.66 288.4 176.66C287.32 176.66 286.307 176.66 285.36 176.66H283.8V177.04C284.733 177.52 285.46 178.2 285.98 179.08C286.513 179.96 286.78 181.107 286.78 182.52C286.78 184.013 286.487 185.367 285.9 186.58C285.327 187.78 284.387 188.74 283.08 189.46C281.773 190.18 280.04 190.54 277.88 190.54ZM283.8 201C282.613 199.947 281.46 198.927 280.34 197.94C279.233 196.94 278.153 195.98 277.1 195.06L271.22 189.84L275.28 188.38L281.28 193.68C282.587 194.813 283.993 196.047 285.5 197.38C287.007 198.713 288.38 199.92 289.62 201H283.8ZM271.22 183.4V180.68C272.527 180.68 273.793 180.68 275.02 180.68C276.247 180.68 277.373 180.68 278.4 180.68H284.54C285.607 180.68 286.74 180.68 287.94 180.68C289.153 180.68 290.413 180.68 291.72 180.68V183.4C290.413 183.4 289.153 183.4 287.94 183.4C286.74 183.4 285.607 183.4 284.54 183.4H278.4C277.373 183.4 276.247 183.4 275.02 183.4C273.793 183.4 272.527 183.4 271.22 183.4Z" fill="#9D76C1"/>
<defs>
<clipPath id="clip0_612_601">
<rect width="358.663" height="289.175" fill="white" transform="translate(111 111)"/>
</clipPath>
</defs>
</svg>
